<svg xmlns="http://www.w3.org/2000/svg" viewBox="0 0 19 23"><g fill="#647291"><path d="M12.4 21.25l4.98-3.63V1.45a.48.48 0 0 0-.48-.48H1.45a.48.48 0 0 0-.48.48v19.32c0 .26.21.48.48.48H12.4zm.15.96H1.46c-.8 0-1.45-.64-1.45-1.45V1.45C0 .65.65 0 1.45 0H16.9c.8 0 1.45.65 1.45 1.45v16.42c0 .15-.08.3-.2.39l-5.31 3.86a.48.48 0 0 1-.29.1z"/><path d="M12.55 17.87v2.9a.48.48 0 1 1-.96 0v-3.39c0-.26.22-.48.48-.48h5.31a.48.48 0 0 1 0 .97h-4.82zM6.76 4.83a.48.48 0 1 1 0-.97h4.83a.48.48 0 1 1 0 .97H6.76zM3.38 8.69a.48.48 0 1 1 0-.96h6.28a.48.48 0 0 1 0 .96H3.38zm0 1.93a.48.48 0 1 1 0-.96h6.28a.48.48 0 0 1 0 .96H3.38zm0 1.94a.48.48 0 1 1 0-.97h6.28a.48.48 0 0 1 0 .97H3.38zm0 1.93a.48.48 0 1 1 0-.97h6.28a.48.48 0 0 1 0 .97H3.38zm10.14-5.8a.48.48 0 0 1 0-.96h1.45a.48.48 0 0 1 0 .96h-1.45zm0 1.93a.48.48 0 1 1 0-.96h1.45a.48.48 0 0 1 0 .96h-1.45zm0 1.94a.48.48 0 1 1 0-.97h1.45a.48.48 0 0 1 0 .97h-1.45zm0 1.93a.48.48 0 1 1 0-.97h1.45a.48.48 0 0 1 0 .97h-1.45z"/></g></svg>