<svg width="22" height="22" xmlns="http://www.w3.org/2000/svg"><g fill="#647291" fill-rule="nonzero"><path d="M17.462 21.615a4.154 4.154 0 1 1 0-8.307 4.154 4.154 0 0 1 0 8.307zm0-.923a3.23 3.23 0 1 0 0-6.461 3.23 3.23 0 0 0 0 6.461z"/><path d="M17 16.077a.462.462 0 1 1 .923 0v2.77a.462.462 0 1 1-.923 0v-2.77z"/><path d="M18.846 17a.462.462 0 1 1 0 .923h-2.77a.462.462 0 1 1 0-.923h2.77zM15.411 9.304a1.285 1.285 0 0 0 .009-.024l-.009.024zm-4.64 4.257c-2.112 0-4.011-2.283-4.617-4.184a4.39 4.39 0 0 1-.19-.12.547.547 0 0 1-.216-.215c-.812-1.436-.776-2.438-.099-2.978a1.41 1.41 0 0 1 .153-.107 8.743 8.743 0 0 1 .205-1.948c.016-.07.033-.14.052-.212.112-.416.394-1.007.92-1.596.87-.977 2.123-1.563 3.793-1.563 1.669 0 2.922.586 3.793 1.563.526.59.808 1.18.92 1.598.019.07.036.14.052.21.152.667.207 1.35.205 1.948.05.03.101.066.152.107.678.54.713 1.542-.098 2.978a.547.547 0 0 1-.216.215 3.964 3.964 0 0 1-.19.12c-.607 1.902-2.505 4.184-4.618 4.184zm-4.56-4.146a1.406 1.406 0 0 0 .005.003l-.005-.003zm.384-.85c.08.05.125.078.166.108a.88.88 0 0 1 .09.073.48.48 0 0 1 .147.235c.454 1.577 2.138 3.657 3.774 3.657 1.636 0 3.32-2.08 3.774-3.658a.48.48 0 0 1 .147-.234.88.88 0 0 1 .09-.073c.041-.03.085-.059.153-.101.1-.062.107-.066.13-.082-.02.014-.027.018-.042.042.58-1.037.559-1.536.295-1.746a.384.384 0 0 0-.13-.071.462.462 0 0 1-.376-.48l.002-.068a7.979 7.979 0 0 0-.178-1.952 5.359 5.359 0 0 0-.044-.178 2.399 2.399 0 0 0-.144-.361 3.663 3.663 0 0 0-.572-.86c-.7-.785-1.705-1.255-3.105-1.255s-2.405.47-3.105 1.255a3.663 3.663 0 0 0-.573.86c-.081.171-.127.299-.143.36-.016.058-.03.118-.045.179a7.979 7.979 0 0 0-.175 2.02.462.462 0 0 1-.377.48.384.384 0 0 0-.13.07c-.266.213-.284.72.327 1.803-.03-.054-.039-.07-.051-.082l.095.058z"/><path d="M2 19.644c.619.099 1.353.198 2.202.291 2.43.266 5.281.426 8.533.426a.462.462 0 0 1 0 .923c-3.286 0-6.17-.161-8.634-.431a45.617 45.617 0 0 1-2.247-.298 24.654 24.654 0 0 1-.778-.138.462.462 0 0 1-.366-.474c.172-3.614 1.895-5.512 5.075-6.516.43-.136.831-.302 1.2-.491a6.57 6.57 0 0 0 .962-.598 3.33 3.33 0 0 0 .302-.25.462.462 0 0 1 .65.655c-.267.264-.766.642-1.492 1.014a8.636 8.636 0 0 1-1.344.55c-2.715.858-4.153 2.35-4.404 5.28l.342.057zM12.645 12.743a.462.462 0 1 1 .65-.656c.033.033.11.102.231.197.209.163.459.333.75.499a.462.462 0 0 1-.458.802c-.57-.326-.963-.633-1.173-.842z"/></g></svg>