<svg xmlns="http://www.w3.org/2000/svg" viewBox="0 0 21 24"><g fill="#647291"><path d="M18.5 22.46c.64 0 1.14-.56 1.06-1.2L17.82 7.3a1.07 1.07 0 0 0-1.07-.94H4.57c-.54 0-1 .4-1.07.94L1.76 21.26c-.08.64.42 1.2 1.06 1.2H18.5zm0 1.08H2.81A2.15 2.15 0 0 1 .7 21.12L2.44 7.17A2.15 2.15 0 0 1 4.57 5.3h12.18c1.08 0 2 .8 2.13 1.88l1.74 13.95a2.15 2.15 0 0 1-2.13 2.42z"/><path d="M6.9 5.3a.54.54 0 0 1-1.07 0 4.83 4.83 0 0 1 9.66 0 .54.54 0 0 1-1.07 0 3.76 3.76 0 0 0-7.52 0zm7.68 4.43a.54.54 0 0 1 .74.78L6.2 19.1a.54.54 0 1 1-.74-.78l9.12-8.59zM10.4 20.85a1.88 1.88 0 1 1 0-3.75 1.88 1.88 0 0 1 0 3.75zm0-1.07a.8.8 0 1 0 0-1.61.8.8 0 0 0 0 1.61zm0-8.59a1.88 1.88 0 1 1 0-3.75 1.88 1.88 0 0 1 0 3.75zm0-1.07a.8.8 0 1 0 0-1.6.8.8 0 0 0 0 1.6z"/></g></svg>