<svg xmlns="http://www.w3.org/2000/svg" viewBox="0 0 20 20"><path fill="#F56C6C" d="M12.162 0a7.843 7.843 0 0 0-7.838 7.838c0 1.892.688 3.636 1.794 4.988l-2.383 2.383-2.482-2.482c-.295-.295-.762-.295-1.032 0-.295.295-.295.762 0 1.032l2.482 2.482-2.089 2.113c-.295.295-.295.761 0 1.032a.75.75 0 0 0 .516.22.75.75 0 0 0 .516-.22l2.089-2.089 2.481 2.482a.75.75 0 0 0 .516.221.75.75 0 0 0 .516-.221c.295-.295.295-.762 0-1.032L4.791 16.24l2.383-2.384a7.745 7.745 0 0 0 4.988 1.794A7.843 7.843 0 0 0 20 7.813C20 3.49 16.487 0 12.162 0zm0 14.201a6.342 6.342 0 0 1-4.447-1.818c-.025-.024-.025-.049-.05-.049-.024-.024-.048-.024-.048-.049a6.341 6.341 0 0 1-1.818-4.447 6.365 6.365 0 0 1 6.363-6.364 6.365 6.365 0 0 1 6.364 6.364 6.365 6.365 0 0 1-6.364 6.363z"/></svg>