<svg xmlns="http://www.w3.org/2000/svg" viewBox="0 0 80 77"><g fill="none" fill-rule="evenodd"><path fill="#EBF3FB" d="M41.1 74.58c19.34 0 35.02-15.68 35.02-35.01S62.5-2.73 41.1 1.14C19.7 5 3.98 19.8 3.98 43.69c0 23.88 17.79 30.89 37.13 30.89z"/><path fill="#EBF3FB" fill-opacity=".5" d="M74.99 55.3A35.01 35.01 0 0 0 62.17 7.49C45.42-2.2 18.73-1.9 11.38 18.58 4.03 39.07 9 60.09 29.68 72.02c20.67 11.94 35.64.04 45.3-16.7z"/><path fill="#EBF3FB" fill-opacity=".5" d="M67.54 55.26A35.01 35.01 0 0 0 54.72 7.43C37.98-2.24 11.28-1.93 3.94 18.53c-7.35 20.48-2.4 41.5 18.29 53.44C42.9 83.9 57.87 72 67.54 55.27z"/><path fill="#3AA6C2" fill-rule="nonzero" d="M62.45 27.59l-23.17-14.1a.55.55 0 0 0-.2-.07.6.6 0 0 0-.44.08L15.46 27.59a.6.6 0 0 0-.29.5v3.64a.6.6 0 0 0 .9.51l5.95-3.55v27.02h-3.07a.6.6 0 0 0-.6.6v4.14c0 .33.27.6.6.6h39.79a.6.6 0 0 0 .6-.6v-4.14a.6.6 0 0 0-.6-.6h-3.03V28.6l6.2 3.7a.6.6 0 0 0 .6 0 .6.6 0 0 0 .3-.52l-.07-3.69a.6.6 0 0 0-.29-.5zM30.31 55.72V42.6a8.54 8.54 0 0 1 17.07 0v13.1H30.3zm-7.1-13.98h5.96a9.74 9.74 0 0 0-.05.87v3.13h-5.91v-4zm6.14-1.19H23.2v-4h8.04a9.69 9.69 0 0 0-1.9 4zm-6.14 6.38h5.91v4h-5.91v-4zm25.34-4.63h5.97v3.72h-5.95V42.6l-.02-.31zm5.97-1.2h-6.08a9.67 9.67 0 0 0-2-4.55h8.08v4.56zm-5.95 6.1h5.95v3.73h-5.95V47.2zm5.95-11.84H45.3a9.67 9.67 0 0 0-6.45-2.47c-2.48 0-4.74.94-6.46 2.47h-9.18v-4h31.31v4zM23.21 52.12h5.91v3.6h-5.91v-3.6zm34.93 7.74h-38.6V56.9h38.6v2.95zm-9.57-4.15v-3.59h5.95v3.6h-5.95zm5.95-25.54H23.21v-2.19l3.07-1.83.1.02h25.28l2.86 1.7v2.3zm-26.27-5.2l10.7-6.38 10.71 6.39H28.25zm11.01-7.59a.6.6 0 0 0-.61 0l-22.29 13.3v-2.25l22.6-13.73 22.6 13.73.04 2.29-22.34-13.34z"/><path fill="#3AA6C2" d="M38.7 49.07v-5.33c-1 .76-1.67 1.14-2.01 1.14a.6.6 0 0 1-.44-.2.63.63 0 0 1-.19-.45c0-.2.07-.34.2-.43.12-.1.34-.22.65-.37a4.9 4.9 0 0 0 1.13-.7 4.79 4.79 0 0 0 .76-.82l.42-.57c.07-.07.2-.1.38-.1a.6.6 0 0 1 .5.24c.12.16.18.38.18.66v6.7c0 .78-.26 1.17-.8 1.17a.73.73 0 0 1-.57-.24c-.15-.16-.22-.4-.22-.7z"/></g></svg>