<svg width="22" height="20" xmlns="http://www.w3.org/2000/svg"><g fill="#647291" fill-rule="nonzero"><path d="M14.556 9.323zm-3.715 3.304c-1.706 0-3.211-1.75-3.687-3.212a.904.904 0 0 1-.35-.353c-.52-.927-.477-1.66-.019-2.136.032-.034.064-.064.096-.09a6.385 6.385 0 0 1 .203-1.626c.09-.325.316-.781.736-1.235.696-.752 1.696-1.203 3.02-1.203 1.325 0 2.325.451 3.02 1.203.42.454.646.91.738 1.237a6.376 6.376 0 0 1 .202 1.606c.026.02.052.043.077.067.477.45.517 1.19-.006 2.174a.948.948 0 0 1-.349.372c-.482 1.459-1.982 3.196-3.681 3.196zM7.694 8.653a.745.745 0 0 1 .332.366l.018.049c.337 1.129 1.603 2.637 2.797 2.637 1.193 0 2.459-1.508 2.792-2.624a.609.609 0 0 1 .29-.375l.066-.04a.257.257 0 0 0 .022-.016c.356-.666.34-.972.198-1.105-.023-.022-.042-.031-.03-.028a.463.463 0 0 1-.34-.467l.002-.048a5.627 5.627 0 0 0-.167-1.552 1.65 1.65 0 0 0-.104-.249 2.605 2.605 0 0 0-.423-.613c-.518-.559-1.26-.894-2.306-.894s-1.79.335-2.307.894c-.18.195-.32.405-.423.613-.06.12-.092.21-.103.247a5.627 5.627 0 0 0-.166 1.601.46.46 0 0 1-.297.453c.003 0-.026.016-.058.05-.16.167-.179.472.157 1.07.007.005.013.009.05.03z"/><path d="M12.631 12.021a.45.45 0 0 1-.048-.65.49.49 0 0 1 .675-.047c.048.04.154.12.315.226.276.18.6.362.971.532.2.092.408.178.624.256 2.275.83 3.296 2.637 3.472 5.425.05.794-.613 1.57-1.434 1.57H4.889c-.83 0-1.482-.787-1.433-1.593.17-2.793 1.17-4.504 3.472-5.344.24-.087.467-.184.683-.289.342-.166.638-.344.884-.52.143-.103.236-.18.276-.216a.49.49 0 0 1 .676.01.45.45 0 0 1-.01.651c-.252.235-.719.57-1.396.899-.245.119-.503.229-.774.328-1.9.693-2.706 2.072-2.856 4.535-.019.308.237.616.478.616h12.317c.239 0 .497-.302.479-.591-.155-2.462-.99-3.937-2.855-4.618a9.361 9.361 0 0 1-.697-.286c-.717-.329-1.224-.662-1.502-.894z"/><path d="M2.737 3.074a4.68 4.68 0 0 1 .042-.167c.092-.326.317-.782.737-1.237C4.211.918 5.212.467 6.536.467c1.33 0 2.334.477 3.029 1.27.417.475.64.95.73 1.29a.46.46 0 0 1-.345.56.48.48 0 0 1-.582-.332 1.83 1.83 0 0 0-.107-.27 2.786 2.786 0 0 0-.427-.653c-.518-.59-1.258-.943-2.298-.943-1.046 0-1.789.336-2.306.895-.18.195-.32.405-.423.613-.06.12-.093.21-.103.248a5.641 5.641 0 0 0-.166 1.603.46.46 0 0 1-.296.452c.003-.001-.026.016-.059.05-.16.169-.18.475.157 1.074a.48.48 0 0 0 .058.04.758.758 0 0 1 .324.364l.018.048c.14.47 1.098 1.737 1.77 2.134.299.176.307.59.016.777l-.122.076a15.644 15.644 0 0 1-1.428.765c-.34.16-.68.303-1.013.425-1.627.593-1.974 1.441-1.94 3.658.005.29.257.571.48.571h2.801a.47.47 0 0 1 .479.461.47.47 0 0 1-.479.462H1.503c-.784 0-1.424-.716-1.436-1.48-.04-2.562.454-3.767 2.557-4.534.305-.112.617-.243.933-.392.303-.142.596-.294.871-.446-.69-.629-1.37-1.575-1.577-2.132a1.585 1.585 0 0 1-.08-.054.923.923 0 0 1-.272-.304c-.52-.926-.476-1.66-.019-2.138.032-.033.065-.064.097-.091-.001-.45.042-.96.16-1.46zM18.218 9.652c.342.17.68.318 1.01.439 2.103.767 2.596 1.972 2.556 4.533-.012.765-.651 1.48-1.435 1.48h-2.653a.47.47 0 0 1-.479-.46.47.47 0 0 1 .479-.462h2.653c.223 0 .474-.28.479-.571.034-2.217-.313-3.065-1.939-3.658a10.79 10.79 0 0 1-1.11-.482 13.89 13.89 0 0 1-1.468-.85.453.453 0 0 1 .08-.795c.662-.29 1.555-1.494 1.721-2.05l.018-.048a.758.758 0 0 1 .324-.364l.052-.034c.342-.605.324-.911.163-1.08-.034-.034-.062-.051-.06-.05a.46.46 0 0 1-.295-.452l.002-.048a5.641 5.641 0 0 0-.167-1.553 1.652 1.652 0 0 0-.104-.25 2.606 2.606 0 0 0-.423-.613c-.518-.56-1.26-.895-2.307-.895-1.037 0-1.76.35-2.255.936a2.644 2.644 0 0 0-.402.648 1.76 1.76 0 0 0-.097.268.479.479 0 0 1-.57.35.461.461 0 0 1-.363-.55c.079-.341.287-.82.69-1.298C12.99.947 13.983.467 15.315.467c1.325 0 2.325.451 3.02 1.203.42.455.646.91.738 1.239a6.399 6.399 0 0 1 .202 1.625c.032.027.064.058.097.091.457.478.5 1.212-.02 2.138a.923.923 0 0 1-.27.304c-.026.018-.051.035-.08.053-.216.613-.855 1.533-1.55 2.116.242.142.499.283.766.416z"/></g></svg>