<svg xmlns="http://www.w3.org/2000/svg" viewBox="0 0 22 22"><g fill="#647291"><path d="M15.202 9.23zm-4.76 4.419c-2.157 0-4.098-2.336-4.717-4.28a4.475 4.475 0 0 1-.199-.126c-.113-.076-.16-.113-.216-.215-.828-1.465-.792-2.484-.105-3.032a1.43 1.43 0 0 1 .162-.112 8.94 8.94 0 0 1 .209-2c.017-.072.034-.144.053-.216.115-.424.402-1.028.939-1.63.89-.996 2.169-1.595 3.874-1.595s2.985.599 3.875 1.596c.536.601.824 1.205.939 1.63l.053.215a8.94 8.94 0 0 1 .209 2c.053.032.107.069.161.112.688.548.724 1.567-.104 3.03-.057.104-.104.141-.217.217a4.04 4.04 0 0 1-.199.126c-.618 1.944-2.559 4.28-4.717 4.28zM5.78 9.405a1.334 1.334 0 0 0 .004.003l-.004-.003zm.305-.868l.023.041-.032-.056.01.015zm-.048-.055l.12.076c.082.051.127.08.17.11a.885.885 0 0 1 .09.074.477.477 0 0 1 .147.234c.467 1.622 2.195 3.756 3.878 3.756 1.684 0 3.412-2.134 3.878-3.755a.478.478 0 0 1 .148-.235.885.885 0 0 1 .09-.073c.042-.03.087-.06.156-.103l.106-.066c.585-1.061.561-1.57.288-1.787a.403.403 0 0 0-.139-.075.458.458 0 0 1-.374-.476l.002-.071a8.18 8.18 0 0 0-.182-2.003 5.5 5.5 0 0 0-.045-.182 2.47 2.47 0 0 0-.149-.373 3.767 3.767 0 0 0-.588-.884c-.72-.806-1.753-1.29-3.19-1.29-1.439 0-2.472.484-3.191 1.29a3.767 3.767 0 0 0-.589.884 2.477 2.477 0 0 0-.148.371c-.016.06-.031.122-.045.184a8.18 8.18 0 0 0-.18 2.074.458.458 0 0 1-.375.476.403.403 0 0 0-.139.075c-.276.22-.297.737.31 1.824-.024-.038-.03-.042-.049-.055z"/><path d="M12.285 12.699a.458.458 0 0 1 .816-.42c.06.118.307.362.859.649a.458.458 0 1 1-.422.813c-.719-.372-1.104-.754-1.253-1.042zm-10.89 7.209a48.114 48.114 0 0 0 9.591.717.458.458 0 1 1 .027.916 49.019 49.019 0 0 1-9.78-.731 27.617 27.617 0 0 1-.721-.141.458.458 0 0 1-.36-.47c.176-3.694 1.936-5.633 5.188-6.66a7.91 7.91 0 0 0 1.232-.504 6.74 6.74 0 0 0 .986-.613 3.42 3.42 0 0 0 .31-.258.458.458 0 0 1 .646.651c-.272.27-.782.655-1.524 1.036a8.829 8.829 0 0 1-1.374.563c-2.792.88-4.269 2.419-4.522 5.437l.302.057zm18.772.259v-5.042H13.75v5.042h6.417zm0 .916H13.75a.917.917 0 0 1-.917-.916v-5.042c0-.506.41-.917.917-.917h6.417c.506 0 .916.41.916.917v5.042c0 .506-.41.916-.916.916z"/><path d="M19.94 15.644a.458.458 0 1 1 .454.796l-3.208 1.833a.458.458 0 0 1-.455 0l-3.208-1.833a.458.458 0 1 1 .454-.796l2.981 1.703 2.981-1.703z"/></g></svg>