<svg xmlns="http://www.w3.org/2000/svg" viewBox="0 0 22 22"><path fill="#409EFF" d="M21.277 0L17.02.001a.723.723 0 0 0 0 1.447h2.51L15.237 5.74a9.168 9.168 0 0 0-6-2.213 9.175 9.175 0 0 0-6.531 2.706A9.173 9.173 0 0 0 0 12.763c0 2.467.96 4.787 2.705 6.531A9.175 9.175 0 0 0 9.237 22a9.176 9.176 0 0 0 6.531-2.706 9.176 9.176 0 0 0 2.705-6.53 9.165 9.165 0 0 0-2.213-6l4.293-4.293v2.51a.723.723 0 1 0 1.447 0V.724c0-.4-.324-.724-.723-.724zm-6.532 18.271a7.739 7.739 0 0 1-5.508 2.282 7.735 7.735 0 0 1-5.508-2.282 7.74 7.74 0 0 1-2.282-5.508c0-2.08.81-4.036 2.282-5.507a7.738 7.738 0 0 1 5.508-2.282c2.08 0 4.037.81 5.508 2.281a7.736 7.736 0 0 1 2.282 5.508c0 2.08-.81 4.037-2.282 5.508z"/></svg>