<svg xmlns="http://www.w3.org/2000/svg" viewBox="0 0 33 24"><g fill="#647291"><path d="M28.68 22.29a2.13 2.13 0 0 0 2.13-2.13V3.84a2.13 2.13 0 0 0-2.13-2.13H3.84a2.13 2.13 0 0 0-2.13 2.13v16.32c0 1.18.95 2.13 2.13 2.13h24.84zm0 1.42H3.84a3.55 3.55 0 0 1-3.55-3.55V3.84A3.55 3.55 0 0 1 3.84.29h24.84a3.55 3.55 0 0 1 3.55 3.55v16.32a3.55 3.55 0 0 1-3.55 3.55z"/><path d="M1 7.39a.71.71 0 1 1 0-1.42h30.52a.71.71 0 1 1 0 1.42H1zm0 4.96a.71.71 0 1 1 0-1.41h30.52a.71.71 0 0 1 0 1.42H1zM17.32 8.1h1.42v2.13h-1.42zM20.16 8.1h1.42v2.13h-1.42zM23 8.1h1.42v2.13H23zM25.84 8.1h1.42v2.13h-1.42z"/></g></svg>