<svg xmlns="http://www.w3.org/2000/svg" width="24" height="24" viewBox="0 0 24 24"><g fill="#647291" fill-rule="nonzero"><path d="M22 22.5c.274 0 .5-.226.5-.5V2c0-.274-.226-.5-.5-.5H2c-.274 0-.5.226-.5.5v20c0 .274.226.5.5.5h20zm0 1H2c-.826 0-1.5-.674-1.5-1.5V2C.5 1.174 1.174.5 2 .5h20c.826 0 1.5.674 1.5 1.5v20c0 .826-.674 1.5-1.5 1.5z"/><path d="M1 5.5v-1h22v1zM7.667 14.628a.5.5 0 1 1 .966-.256C9.037 15.898 10.422 17 12 17s2.963-1.102 3.367-2.628a.5.5 0 1 1 .966.256C15.815 16.586 14.04 18 12 18s-3.815-1.414-4.333-3.372zM16.333 12.372a.5.5 0 1 1-.966.256C14.963 11.102 13.578 10 12 10s-2.963 1.102-3.367 2.628a.5.5 0 1 1-.966-.256C8.185 10.414 9.96 9 12 9s3.815 1.414 4.333 3.372z"/><path d="M16.015 10.379a.5.5 0 0 1 .97.242l-.5 2a.5.5 0 0 1-.606.364l-2-.5a.5.5 0 0 1 .242-.97l1.515.379.379-1.515zM7.985 16.621a.5.5 0 0 1-.97-.242l.5-2a.5.5 0 0 1 .606-.364l2 .5a.5.5 0 0 1-.242.97l-1.515-.379-.379 1.515z"/></g></svg>