<svg xmlns="http://www.w3.org/2000/svg" viewBox="0 0 22 22">
  <g fill="#647291">
    <path d="M20.84 8.95c.7.156 1.18.767 1.112 1.428v1.244c0 .71-.452 1.286-1.16 1.427l-1.035.185a9.118 9.118 0 0 1-1.009 2.394l.574.824a1.427 1.427 0 0 1-.14 1.869l-.861.86a1.422 1.422 0 0 1-1.855.15l-.833-.579c-.686.432-1.5.766-2.4 1.006l-.188 1.054a1.455 1.455 0 0 1-1.423 1.14H10.33c-.71 0-1.285-.452-1.427-1.16l-.185-1.035a9.118 9.118 0 0 1-2.393-1.009l-.825.574a1.427 1.427 0 0 1-1.869-.14l-.86-.861a1.422 1.422 0 0 1-.15-1.855l.578-.832c-.443-.699-.775-1.5-1.008-2.4l-1.051-.189A1.455 1.455 0 0 1 0 11.622v-1.244c0-.71.452-1.286 1.16-1.427l1.035-.185c.234-.87.568-1.67 1.009-2.394l-.574-.824a1.419 1.419 0 0 1 .123-1.85l.43-.479.496-.448a1.422 1.422 0 0 1 1.855-.15l.832.578a7.511 7.511 0 0 1 2.403-.973l.186-1.038c.146-.66.731-1.14 1.423-1.14h1.292c.71 0 1.285.452 1.427 1.16l.185 1.035c.87.234 1.67.567 2.393 1.009l.825-.574a1.427 1.427 0 0 1 1.869.14l.86.861c.505.505.57 1.297.15 1.855l-.579.833c.431.686.766 1.5 1.006 2.4l1.035.184zm-.179.94l-1.328-.237a.478.478 0 0 1-.38-.36c-.248-1.04-.625-1.952-1.122-2.656a.478.478 0 0 1-.002-.55l.775-1.113a.47.47 0 0 0-.05-.618l-.862-.861a.475.475 0 0 0-.632-.042l-1.1.766a.478.478 0 0 1-.538.005c-.778-.518-1.669-.89-2.668-1.128a.478.478 0 0 1-.36-.381l-.237-1.33c-.048-.242-.224-.38-.487-.38h-1.292c-.239 0-.44.164-.485.37l-.24 1.34a.478.478 0 0 1-.385.386c-.996.181-1.885.541-2.631 1.068a.478.478 0 0 1-.55.002l-1.113-.775c-.188-.14-.448-.12-.637.068l-.46.414-.43.478a.475.475 0 0 0-.041.632l.765 1.1a.478.478 0 0 1 .005.538c-.518.778-.89 1.669-1.128 2.667a.478.478 0 0 1-.381.36l-1.33.238c-.242.048-.38.224-.38.487v1.244c0 .239.164.44.37.485l1.34.24c.189.033.34.177.382.364.236 1.04.605 1.923 1.12 2.652a.478.478 0 0 1 .002.55l-.775 1.113a.47.47 0 0 0 .05.618l.862.861c.17.171.43.192.632.042l1.1-.766a.478.478 0 0 1 .538-.005c.778.518 1.669.89 2.668 1.128a.478.478 0 0 1 .36.381l.237 1.33c.048.242.224.38.487.38h1.292c.239 0 .44-.164.485-.37l.24-1.34a.478.478 0 0 1 .36-.38c1.04-.248 1.952-.625 2.656-1.122a.478.478 0 0 1 .55-.002l1.113.776a.47.47 0 0 0 .618-.052l.861-.86c.171-.171.192-.431.042-.633l-.766-1.1a.478.478 0 0 1-.005-.538c.518-.778.89-1.669 1.128-2.667a.478.478 0 0 1 .381-.36l1.33-.238c.242-.048.38-.224.38-.487V11l.003-.67c.02-.206-.12-.387-.337-.44z"/>
    <path d="M11 15.304a4.304 4.304 0 1 1 0-8.608 4.304 4.304 0 0 1 0 8.608zm0-.956a3.348 3.348 0 1 0 0-6.696 3.348 3.348 0 0 0 0 6.696z"/>
  </g>
</svg>
