<svg xmlns="http://www.w3.org/2000/svg" viewBox="0 0 33 28"><g fill="#647291"><path d="M16.5 22.14a.7.7 0 0 1 0 1.4H3.82a3.52 3.52 0 0 1-3.53-3.52V3.82A3.52 3.52 0 0 1 3.82.3h24.66A3.52 3.52 0 0 1 32 3.81v9.86a.7.7 0 1 1-1.41 0V3.82a2.11 2.11 0 0 0-2.11-2.11H3.82A2.11 2.11 0 0 0 1.7 3.8v16.21c0 1.17.94 2.12 2.1 2.12H16.5z"/><path d="M1 7.34a.7.7 0 1 1 0-1.4h30.3a.7.7 0 1 1 0 1.4H1zm0 4.93a.7.7 0 0 1 0-1.4h30.3a.7.7 0 1 1 0 1.4H1zM17.2 8.04h1.41v2.12h-1.4zM20.02 8.04h1.41v2.12h-1.4zM22.84 8.04h1.41v2.12h-1.4zM25.66 8.04h1.4v2.12h-1.4zM22.19 19.03a.7.7 0 0 1-1.14-.83 6.17 6.17 0 1 1-.86 5.56.7.7 0 0 1 1.34-.44 4.76 4.76 0 0 0 9.27-1.5 4.76 4.76 0 0 0-8.61-2.8z"/><path d="M19.95 25.97a.7.7 0 1 1-1.26-.63l1.66-3.32 3.37.84a.7.7 0 1 1-.35 1.37l-2.27-.57-1.15 2.31z"/></g></svg>