<svg xmlns="http://www.w3.org/2000/svg" viewBox="0 0 33 24"><g fill="#647291"><path d="M28.68 22.29a2.13 2.13 0 0 0 2.13-2.13V3.84a2.13 2.13 0 0 0-2.13-2.13H3.84a2.13 2.13 0 0 0-2.13 2.13v16.32c0 1.18.95 2.13 2.13 2.13h24.84zm0 1.42H3.84a3.55 3.55 0 0 1-3.55-3.55V3.84A3.55 3.55 0 0 1 3.84.29h24.84a3.55 3.55 0 0 1 3.55 3.55v16.32a3.55 3.55 0 0 1-3.55 3.55z"/><path d="M5.97 10.94h12.77v1.42H4.54V8.1h14.2v1.42H5.97zM20.87 8.8h1.42v2.84h-1.42zM23.71 8.8h1.42v2.84H23.7zM26.55 8.8h1.42v2.84h-1.42z"/></g></svg>