<svg width="22" height="24" xmlns="http://www.w3.org/2000/svg"><g fill="#647291" fill-rule="nonzero"><path d="M16.335 9.835zm-5.101 4.736c-2.313 0-4.394-2.504-5.056-4.588a4.798 4.798 0 0 1-.214-.135c-.121-.082-.17-.122-.232-.23-.887-1.57-.849-2.661-.113-3.248.059-.047.117-.087.175-.12a9.585 9.585 0 0 1 .224-2.146c.018-.078.037-.155.057-.232.123-.455.431-1.101 1.006-1.746.954-1.069 2.325-1.71 4.153-1.71 1.828 0 3.199.641 4.152 1.71.575.645.884 1.291 1.007 1.748.02.075.039.152.057.23.167.734.227 1.487.224 2.145.057.034.116.074.174.12.736.588.775 1.679-.112 3.248-.062.11-.111.15-.232.23a4.331 4.331 0 0 1-.214.136c-.662 2.083-2.743 4.588-5.056 4.588zm-4.998-4.55a1.408 1.408 0 0 0 .005.003l-.005-.003zm10.003-2.887a.434.434 0 0 0-.15-.08.489.489 0 0 1-.4-.508l.003-.077a8.774 8.774 0 0 0-.196-2.148 5.9 5.9 0 0 0-.048-.195 2.65 2.65 0 0 0-.16-.4 4.042 4.042 0 0 0-.631-.949c-.772-.865-1.88-1.384-3.423-1.384-1.543 0-2.651.519-3.423 1.384-.27.302-.478.626-.632.949-.09.189-.14.33-.159.398l-.049.197a8.774 8.774 0 0 0-.192 2.225.489.489 0 0 1-.4.507.434.434 0 0 0-.15.081c-.3.24-.32.807.355 2.004-.047-.084-.044-.082-.075-.103l.129.082c.088.055.136.086.18.119.037.026.068.05.098.078a.51.51 0 0 1 .156.25c.502 1.74 2.355 4.03 4.162 4.03s3.66-2.29 4.161-4.029a.51.51 0 0 1 .157-.25.947.947 0 0 1 .097-.08c.045-.032.093-.063.167-.11l.114-.07c.628-1.14.603-1.686.309-1.92z"/><path d="M1.464 21.293c.54.11 1.165.221 1.867.325a45.57 45.57 0 0 0 7.89.457.489.489 0 1 1 .027.977 46.541 46.541 0 0 1-8.06-.467c-.72-.106-1.363-.22-1.92-.334a21.631 21.631 0 0 1-.698-.155.489.489 0 0 1-.368-.497c.19-3.961 2.075-6.04 5.561-7.14.474-.15.915-.332 1.322-.54a7.23 7.23 0 0 0 1.058-.659 3.67 3.67 0 0 0 .333-.277.489.489 0 0 1 .688.695c-.291.289-.838.702-1.633 1.11a9.465 9.465 0 0 1-1.473.604c-3 .946-4.584 2.6-4.853 5.846l.259.055zM18.771 19.255l1.832-1.831a.453.453 0 0 0 0-.64l-.5-.5-.5-.5a.453.453 0 0 0-.64 0l-1.83 1.832-2.071 2.07-.586 2.225 2.225-.586 2.07-2.07zm-1.694 2.982l-3.163.833a.489.489 0 0 1-.597-.597l.833-3.163a.489.489 0 0 1 .127-.222l2.164-2.164 1.83-1.831a1.43 1.43 0 0 1 2.024 0l.5.5.5.499a1.43 1.43 0 0 1-.001 2.023l-1.831 1.831-2.164 2.164a.489.489 0 0 1-.222.127z"/><path d="M14.492 20.148a.489.489 0 0 1 .676-.706l1.792 1.716a.489.489 0 0 1-.676.706l-1.792-1.716zM13.303 13.678a.489.489 0 0 1 .689-.695c.05.05.16.147.333.277a7.23 7.23 0 0 0 1.058.658c.407.209.847.392 1.321.541a.489.489 0 1 1-.294.933 9.465 9.465 0 0 1-1.473-.604c-.795-.408-1.342-.821-1.634-1.11z"/></g></svg>